<svg xmlns="http://www.w3.org/2000/svg" viewBox="0 0 14.75 34.42"><defs><style>.cls-1{fill:#242666;}.cls-2{fill:#293684;}</style></defs><g id="레이어_2" data-name="레이어 2"><g id="내지"><polygon class="cls-1" points="4.92 34.42 0 29.51 4.92 29.51 4.92 34.42"/><polygon class="cls-1" points="4.92 9.84 0 4.92 4.92 4.92 4.92 9.84"/><polygon class="cls-1" points="4.92 19.67 4.92 24.59 0 24.59 4.92 19.67"/><polygon class="cls-2" points="14.75 34.42 14.75 29.51 4.92 29.51 4.92 24.59 0 24.59 0 29.51 4.92 29.51 4.92 34.42 14.75 34.42"/><rect class="cls-2" width="4.92" height="4.92"/><path class="cls-2" d="M7.38,9.84A7.38,7.38,0,0,0,0,17.21H0v7.38l4.92-4.92h0V17.21a2.46,2.46,0,1,1,2.46,2.46H4.92v4.92H7.38a7.38,7.38,0,0,0,0-14.75Z"/><rect class="cls-2" x="4.92" y="4.92" width="9.84" height="4.92"/></g></g></svg>